<svg width="18" height="18" viewBox="0 0 18 18" fill="none" xmlns="http://www.w3.org/2000/svg">
<rect width="18" height="18" fill="#212121"/>
<g id="detail" clip-path="url(#clip0_0_1)">
<rect width="1920" height="1978" transform="translate(-1493 -1885)" fill="white"/>
<g id="footer">
<rect id="Rectangle 4135" x="-1493" y="-47" width="1920" height="140" fill="#F9F9F9"/>
<g id="icon">
<rect id="Rectangle 4150" x="-6.5" y="-6.5" width="31" height="31" rx="9.5" fill="#F9F9F9" stroke="#E5E5E5"/>
<g id="_&#207;&#128;_&#195;&#131;&#195;&#166;&#195;&#147;_1" clip-path="url(#clip1_0_1)">
<path id="Vector" fill-rule="evenodd" clip-rule="evenodd" d="M0 10.9664C0 14.8512 3.15625 18 7.05026 18C10.0908 18 12.6817 16.0805 13.6705 13.3901H14.7303C16.5354 13.3901 17.9989 11.93 17.9989 10.1291C17.9989 8.32824 16.5354 6.86816 14.7303 6.86816H0V10.9675V10.9664ZM14.0372 11.9104C14.0787 11.6012 14.1005 11.2865 14.1005 10.9664V8.34566H14.7303C15.7169 8.34566 16.5168 9.14375 16.5168 10.128C16.5168 11.1123 15.7169 11.9104 14.7303 11.9104H14.0361H14.0372Z" fill="#ABABAB"/>
<path id="Vector_2" fill-rule="evenodd" clip-rule="evenodd" d="M2.94531 4.68945H8.25047C10.8458 4.68945 12.951 2.59025 12.951 0H7.64585C5.04948 0 2.94531 2.0992 2.94531 4.68945Z" fill="#ABABAB"/>
</g>
</g>
</g>
</g>
<defs>
<clipPath id="clip0_0_1">
<rect width="1920" height="1978" fill="white" transform="translate(-1493 -1885)"/>
</clipPath>
<clipPath id="clip1_0_1">
<rect width="18" height="18" fill="white"/>
</clipPath>
</defs>
</svg>
